<svg xmlns="http://www.w3.org/2000/svg" viewBox="0 0 512 512" width="512" height="512">
	<style>
		tspan { white-space:pre }
		.shp0 { fill: #ffffff } 
	</style>
	<g id="Layer">
		<path id="Layer" fill-rule="evenodd" class="shp0" d="M512 62L512 354C512 378.81 491.81 399 467 399L321.71 399L332.71 465L352 465C360.28 465 367 471.72 367 480C367 488.28 360.28 495 352 495L160 495C151.72 495 145 488.28 145 480C145 471.72 151.72 465 160 465L179.29 465L190.29 399L45 399C20.19 399 0 378.81 0 354L0 62C0 37.19 20.19 17 45 17L467 17C491.81 17 512 37.19 512 62ZM291.29 399L220.71 399L209.71 465L302.29 465L291.29 399ZM482 62C482 53.73 475.27 47 467 47L271 47L271 64C271 72.28 264.28 79 256 79C247.72 79 241 72.28 241 64L241 47L45 47C36.73 47 30 53.73 30 62L30 354C30 362.27 36.73 369 45 369C57.55 369 456.3 369 467 369C475.27 369 482 362.27 482 354L482 62Z" />
		<path id="Layer" class="shp0" d="M208 209C199.72 209 193 215.72 193 224L193 273L159 273L159 176C159 167.72 152.28 161 144 161C135.72 161 129 167.72 129 176L129 273L95 273L95 128C95 119.72 88.28 113 80 113C71.72 113 65 119.72 65 128L65 288C65 296.28 71.72 303 80 303L208 303C216.28 303 223 296.28 223 288L223 224C223 215.72 216.28 209 208 209Z" />
		<path id="Layer" fill-rule="evenodd" class="shp0" d="M447 208C447 255.97 407.97 295 360 295C336.37 295 314.92 285.53 299.22 270.19C298.47 269.52 298.5 269.56 297.81 268.77C282.47 253.08 273 231.63 273 208C273 160.03 312.03 121 360 121C407.97 121 447 160.03 447 208ZM375 153.02L375 193L414.98 193C409.69 173.61 394.39 158.31 375 153.02ZM310.53 236.26L345 201.79L345 153.02C309.21 162.79 291.98 203.92 310.53 236.26ZM414.98 223L366.21 223L331.74 257.47C364.04 275.99 405.19 258.84 414.98 223Z" />
	</g>
</svg>