<svg xmlns="http://www.w3.org/2000/svg" viewBox="0 0 64 64" width="64" height="64">
	<style>
		tspan { white-space:pre }
		.shp0 { fill: #ffffff } 
	</style>
	<g id="database">
		<path id="Layer" class="shp0" d="M6 54L8 54C8 53.74 8.05 53.48 8.15 53.23C8.25 52.99 8.4 52.77 8.59 52.59C8.77 52.4 8.99 52.25 9.23 52.15C9.48 52.05 9.74 52 10 52L10 50C9.47 50 8.95 50.1 8.47 50.3C7.98 50.51 7.54 50.8 7.17 51.17C6.8 51.54 6.51 51.98 6.3 52.47C6.1 52.95 6 53.47 6 54L6 54Z" />
		<path id="Layer" class="shp0" d="M13 43C13 43.24 13.01 43.48 13.04 43.72C13.06 43.96 13.1 44.19 13.15 44.43C13.2 44.66 13.26 44.89 13.33 45.12C13.4 45.35 13.49 45.57 13.59 45.79L15.42 44.99C15.35 44.84 15.29 44.68 15.24 44.51C15.18 44.35 15.14 44.19 15.1 44.02C15.07 43.85 15.04 43.68 15.03 43.51C15.01 43.34 15 43.17 15 43C15 42.34 15.13 41.69 15.38 41.09C15.63 40.48 16 39.93 16.47 39.47C16.93 39 17.48 38.63 18.09 38.38C18.69 38.13 19.34 38 20 38L20 36C19.08 36 18.17 36.18 17.32 36.53C16.47 36.89 15.7 37.4 15.05 38.05C14.4 38.7 13.89 39.47 13.53 40.32C13.18 41.17 13 42.08 13 43Z" />
		<path id="Layer" fill-rule="evenodd" class="shp0" d="M61.95 31.33C61.91 31.43 61.86 31.53 61.79 31.62C61.72 31.7 61.64 31.78 61.54 31.84C61.45 31.9 61.35 31.94 61.24 31.97L59.95 32.29L60.64 33.44C60.7 33.54 60.74 33.64 60.76 33.75C60.78 33.85 60.78 33.97 60.77 34.08C60.76 34.18 60.73 34.29 60.68 34.39C60.63 34.49 60.57 34.58 60.49 34.66L57.66 37.49C57.58 37.57 57.49 37.63 57.39 37.68C57.29 37.73 57.18 37.76 57.08 37.77C56.97 37.78 56.85 37.78 56.75 37.76C56.64 37.74 56.54 37.7 56.44 37.64L55.29 36.95L54.97 38.24C54.98 38.49 55 38.74 55 39C55 39.61 54.96 40.22 54.88 40.83C54.8 41.43 54.68 42.03 54.52 42.62C54.37 43.22 54.17 43.79 53.93 44.36C53.7 44.92 53.43 45.47 53.12 46L54 46C56.12 46 58.16 46.84 59.66 48.34C61.16 49.84 62 51.88 62 54C62 56.12 61.16 58.16 59.66 59.66C58.16 61.16 56.12 62 54 62L10 62C7.93 62 5.93 61.2 4.44 59.76C2.94 58.33 2.07 56.36 1.99 54.29C1.92 52.22 2.65 50.2 4.03 48.65C5.42 47.11 7.35 46.17 9.42 46.02C9.35 45.77 9.29 45.53 9.24 45.28C9.18 45.03 9.14 44.78 9.1 44.52C9.07 44.27 9.04 44.02 9.03 43.76C9.01 43.51 9 43.25 9 43C9 42.92 9.01 42.84 9.01 42.76C5.64 41.96 2 40.51 2 38L2 8C2 4.06 11.56 2 21 2C29.6 2 38.28 3.72 39.76 7L40 7L40 25.04C40.33 25.02 40.66 25 41 25C41.24 25 41.47 25.01 41.7 25.02C41.94 25.03 42.17 25.05 42.41 25.07C42.64 25.1 42.87 25.13 43.11 25.16C43.34 25.2 43.57 25.24 43.8 25.29L43.36 24.56C43.3 24.46 43.26 24.36 43.24 24.25C43.22 24.15 43.22 24.03 43.23 23.92C43.24 23.82 43.27 23.71 43.32 23.61C43.37 23.51 43.43 23.42 43.51 23.34L46.34 20.51C46.42 20.43 46.51 20.37 46.61 20.32C46.71 20.27 46.82 20.24 46.92 20.23C47.03 20.22 47.15 20.22 47.25 20.24C47.36 20.26 47.46 20.3 47.56 20.36L48.71 21.05L49.03 19.76C49.06 19.65 49.1 19.55 49.16 19.46C49.22 19.36 49.3 19.28 49.38 19.21C49.47 19.14 49.57 19.09 49.67 19.05C49.78 19.02 49.89 19 50 19L54 19C54.11 19 54.22 19.02 54.33 19.05C54.43 19.09 54.53 19.14 54.62 19.21C54.7 19.28 54.78 19.36 54.84 19.46C54.9 19.55 54.94 19.65 54.97 19.76L55.29 21.05L56.44 20.36C56.54 20.3 56.64 20.26 56.75 20.24C56.85 20.22 56.97 20.22 57.08 20.23C57.18 20.24 57.29 20.27 57.39 20.32C57.49 20.37 57.58 20.43 57.66 20.51L60.49 23.34C60.57 23.42 60.63 23.51 60.68 23.61C60.73 23.71 60.76 23.82 60.77 23.92C60.78 24.03 60.78 24.15 60.76 24.25C60.74 24.36 60.7 24.46 60.64 24.56L59.95 25.71L61.24 26.03C61.35 26.06 61.45 26.1 61.54 26.16C61.64 26.22 61.72 26.3 61.79 26.38C61.86 26.47 61.91 26.57 61.95 26.67C61.98 26.78 62 26.89 62 27L62 31C62 31.11 61.98 31.22 61.95 31.33ZM4 8C4 9.36 10 12 21 12C32 12 38 9.36 38 8C38 6.64 32 4 21 4C10 4 4 6.64 4 8ZM4 18C4 19.36 10 22 21 22C32 22 38 19.36 38 18L38 10.82C34.71 12.91 27.84 14 21 14C14.16 14 7.29 12.91 4 10.82L4 18ZM4 28C4 29.36 10 32 21 32C21.69 32 22.38 31.99 23.07 31.97C23.77 31.95 24.46 31.91 25.15 31.86C25.84 31.81 26.52 31.75 27.21 31.68C27.9 31.61 28.59 31.52 29.27 31.42C29.76 30.66 30.33 29.94 30.96 29.29C31.6 28.63 32.29 28.04 33.04 27.52C33.78 27 34.58 26.55 35.41 26.19C36.25 25.82 37.11 25.54 38 25.34L38 20.82C34.71 22.91 27.84 24 21 24C14.16 24 7.29 22.91 4 20.82L4 28ZM51.23 48C51.04 48 50.86 47.95 50.7 47.85C50.54 47.75 50.41 47.61 50.33 47.44C50.24 47.27 50.21 47.08 50.23 46.89C50.25 46.71 50.32 46.53 50.44 46.38C50.85 45.86 51.22 45.31 51.54 44.72C51.86 44.14 52.13 43.53 52.35 42.91C52.56 42.28 52.73 41.64 52.84 40.98C52.95 40.33 53 39.66 53 39L50 39C49.89 39 49.78 38.98 49.67 38.95C49.57 38.91 49.47 38.86 49.38 38.79C49.3 38.72 49.22 38.64 49.16 38.54C49.1 38.45 49.06 38.35 49.03 38.24L48.71 36.95L47.56 37.64C47.46 37.7 47.36 37.74 47.25 37.76C47.15 37.78 47.03 37.78 46.92 37.77C46.82 37.76 46.71 37.73 46.61 37.68C46.51 37.63 46.42 37.57 46.34 37.49L43.51 34.66C43.43 34.58 43.37 34.49 43.32 34.39C43.27 34.29 43.24 34.18 43.23 34.08C43.22 33.97 43.22 33.85 43.24 33.75C43.26 33.64 43.3 33.54 43.36 33.44L44.05 32.29L42.76 31.97C42.65 31.94 42.55 31.9 42.46 31.84C42.36 31.78 42.28 31.7 42.21 31.62C42.14 31.53 42.09 31.43 42.05 31.33C42.02 31.22 42 31.11 42 31L42 27.04C41.67 27.02 41.34 27 41 27C39.57 27 38.14 27.27 36.8 27.77C35.46 28.28 34.22 29.02 33.14 29.96C32.06 30.9 31.15 32.03 30.47 33.29C29.79 34.55 29.33 35.92 29.13 37.34C29.12 37.44 29.09 37.53 29.05 37.62C29 37.71 28.95 37.8 28.88 37.87C28.82 37.94 28.74 38.01 28.65 38.06C28.57 38.11 28.48 38.15 28.38 38.17C28.28 38.19 28.18 38.2 28.08 38.2C27.99 38.19 27.89 38.17 27.79 38.14C27.7 38.1 27.61 38.05 27.54 37.99C27.46 37.93 27.39 37.86 27.33 37.78C26.22 36.23 24.65 35.06 22.84 34.46C21.03 33.86 19.08 33.85 17.26 34.43C15.44 35.01 13.86 36.15 12.73 37.69C11.61 39.23 11 41.09 11 43C11 43.31 11.01 43.62 11.05 43.93C11.08 44.23 11.12 44.54 11.19 44.84C11.25 45.14 11.33 45.44 11.43 45.74C11.52 46.03 11.63 46.32 11.76 46.6C11.79 46.68 11.81 46.76 11.83 46.84C11.84 46.92 11.84 47 11.84 47.08C11.83 47.17 11.81 47.25 11.79 47.33C11.76 47.41 11.72 47.48 11.68 47.55C11.63 47.62 11.58 47.68 11.52 47.74C11.46 47.79 11.39 47.84 11.32 47.88C11.24 47.92 11.17 47.95 11.09 47.97C11.01 47.99 10.92 48 10.84 48L10 48C8.41 48 6.88 48.63 5.76 49.76C4.63 50.88 4 52.41 4 54C4 55.59 4.63 57.12 5.76 58.24C6.88 59.37 8.41 60 10 60L54 60C55.59 60 57.12 59.37 58.24 58.24C59.37 57.12 60 55.59 60 54C60 52.41 59.37 50.88 58.24 49.76C57.12 48.63 55.59 48 54 48L51.23 48ZM9.23 40.75C9.39 40.02 9.61 39.31 9.91 38.62C10.21 37.94 10.58 37.29 11.01 36.68C11.44 36.07 11.94 35.5 12.48 34.99C13.03 34.48 13.62 34.03 14.26 33.64C9.95 33.16 6.19 32.21 4 30.82L4 38C4 38.62 5.42 39.81 9.23 40.75ZM26.01 33.8C26.15 33.89 26.29 33.99 26.42 34.08C26.56 34.18 26.69 34.28 26.83 34.39C26.96 34.49 27.09 34.6 27.22 34.71C27.34 34.81 27.47 34.93 27.59 35.04C27.63 34.92 27.67 34.8 27.71 34.67C27.75 34.55 27.79 34.43 27.83 34.31C27.87 34.19 27.92 34.07 27.97 33.95C28.01 33.84 28.06 33.72 28.11 33.6C27.43 33.68 26.73 33.74 26.01 33.8ZM60 27.78L58.16 27.32C58.08 27.3 58.01 27.27 57.94 27.24C57.87 27.2 57.81 27.15 57.75 27.1C57.69 27.05 57.63 27 57.59 26.93C57.54 26.87 57.5 26.8 57.47 26.73C57.44 26.66 57.42 26.58 57.41 26.5C57.4 26.43 57.39 26.35 57.4 26.27C57.41 26.19 57.42 26.12 57.44 26.04C57.47 25.97 57.5 25.9 57.54 25.83L58.52 24.21L56.79 22.48L55.17 23.46C55.1 23.5 55.03 23.53 54.96 23.56C54.88 23.58 54.81 23.59 54.73 23.6C54.65 23.61 54.57 23.6 54.5 23.59C54.42 23.58 54.34 23.56 54.27 23.53C54.2 23.5 54.13 23.46 54.07 23.41C54 23.37 53.95 23.31 53.9 23.25C53.85 23.19 53.8 23.13 53.76 23.06C53.73 22.99 53.7 22.92 53.68 22.84L53.22 21L50.78 21L50.32 22.84C50.3 22.92 50.27 22.99 50.24 23.06C50.2 23.13 50.15 23.19 50.1 23.25C50.05 23.31 50 23.37 49.93 23.41C49.87 23.46 49.8 23.5 49.73 23.53C49.66 23.56 49.58 23.58 49.5 23.59C49.43 23.6 49.35 23.61 49.27 23.6C49.19 23.59 49.12 23.58 49.04 23.56C48.97 23.53 48.9 23.5 48.83 23.46L47.21 22.48L45.48 24.21L46.46 25.83C46.5 25.9 46.53 25.97 46.56 26.04C46.58 26.12 46.59 26.19 46.6 26.27C46.61 26.35 46.6 26.43 46.59 26.5C46.58 26.58 46.56 26.66 46.53 26.73C46.5 26.8 46.46 26.87 46.41 26.93C46.37 27 46.31 27.05 46.25 27.1C46.19 27.15 46.13 27.2 46.06 27.24C45.99 27.27 45.92 27.3 45.84 27.32L44 27.78L44 30.22L45.84 30.68C45.92 30.7 45.99 30.73 46.06 30.76C46.13 30.8 46.19 30.85 46.25 30.9C46.31 30.95 46.37 31 46.41 31.07C46.46 31.13 46.5 31.2 46.53 31.27C46.56 31.34 46.58 31.42 46.59 31.5C46.6 31.57 46.61 31.65 46.6 31.73C46.59 31.81 46.58 31.88 46.56 31.96C46.53 32.03 46.5 32.1 46.46 32.17L45.48 33.79L47.21 35.52L48.83 34.54C48.9 34.5 48.97 34.47 49.04 34.44C49.12 34.42 49.19 34.41 49.27 34.4C49.35 34.39 49.43 34.4 49.5 34.41C49.58 34.42 49.66 34.44 49.73 34.47C49.8 34.5 49.87 34.54 49.93 34.59C50 34.63 50.05 34.69 50.1 34.75C50.15 34.81 50.2 34.87 50.24 34.94C50.27 35.01 50.3 35.08 50.32 35.16L50.78 37L53.22 37L53.68 35.16C53.7 35.08 53.73 35.01 53.76 34.94C53.8 34.87 53.85 34.81 53.9 34.75C53.95 34.69 54 34.63 54.07 34.59C54.13 34.54 54.2 34.5 54.27 34.47C54.34 34.44 54.42 34.42 54.5 34.41C54.57 34.4 54.65 34.39 54.73 34.4C54.81 34.41 54.88 34.42 54.96 34.44C55.03 34.47 55.1 34.5 55.17 34.54L56.79 35.52L58.52 33.79L57.54 32.17C57.5 32.1 57.47 32.03 57.44 31.96C57.42 31.88 57.41 31.81 57.4 31.73C57.39 31.65 57.4 31.57 57.41 31.5C57.42 31.42 57.44 31.34 57.47 31.27C57.5 31.2 57.54 31.13 57.59 31.07C57.63 31 57.69 30.95 57.75 30.9C57.81 30.85 57.87 30.8 57.94 30.76C58.01 30.73 58.08 30.7 58.16 30.68L60 30.22L60 27.78Z" />
		<path id="Layer" fill-rule="evenodd" class="shp0" d="M53.53 25.3C54.02 25.51 54.46 25.8 54.83 26.17C55.2 26.54 55.49 26.98 55.7 27.47C55.9 27.95 56 28.47 56 29C56 30.62 55.03 32.08 53.53 32.7C52.04 33.31 50.32 32.97 49.17 31.83C48.03 30.68 47.69 28.96 48.3 27.47C48.92 25.97 50.38 25 52 25C52.53 25 53.05 25.1 53.53 25.3ZM52.77 30.85C53.01 30.75 53.23 30.6 53.41 30.41C53.6 30.23 53.75 30.01 53.85 29.77C53.95 29.52 54 29.26 54 29C54 28.19 53.51 27.46 52.77 27.15C52.02 26.84 51.16 27.01 50.59 27.59C50.01 28.16 49.84 29.02 50.15 29.77C50.46 30.51 51.19 31 52 31C52.26 31 52.52 30.95 52.77 30.85Z" />
	</g>
</svg>