<svg xmlns="http://www.w3.org/2000/svg" viewBox="0 0 479 480" width="479" height="480">
	<style>
		tspan { white-space:pre }
		.shp0 { fill: #ffffff } 
	</style>
	<path id="Layer" class="shp0" d="M415.5 143C415.46 107.67 386.83 79.04 351.5 79L327.14 79C323 33.69 285 -1 239.5 -1C194 -1 156 33.69 151.86 79L127.5 79C92.15 79 63.5 107.65 63.5 143C63.5 178.35 92.15 207 127.5 207L215.5 207L215.5 191L127.5 191C100.99 191 79.5 169.51 79.5 143C79.5 116.49 100.99 95 127.5 95L167.5 95L167.5 87C167.5 47.23 199.73 15 239.5 15C279.27 15 311.5 47.23 311.5 87L311.5 95L351.5 95C378.01 95 399.5 116.49 399.5 143C399.5 169.51 378.01 191 351.5 191L263.5 191L263.5 207L351.5 207C386.83 206.96 415.46 178.33 415.5 143Z" />
	<path id="Layer" fill-rule="evenodd" class="shp0" d="M359.5 479L279.5 479C266.25 478.98 255.52 468.25 255.5 455L255.5 319C255.52 305.75 266.25 295.02 279.5 295L327.5 295L327.5 277.52C320.72 275.11 315.39 269.78 312.97 263L166.03 263C163.61 269.78 158.28 275.11 151.5 277.53L151.5 303L199.5 303C212.75 303.02 223.48 313.75 223.5 327L223.5 423C223.48 436.25 212.75 446.98 199.5 447L151.5 447L151.5 463L175.5 463L175.5 479L111.5 479L111.5 463L135.5 463L135.5 447L87.5 447C74.25 446.98 63.52 436.25 63.5 423L63.5 327C63.52 313.75 74.25 303.02 87.5 303L135.5 303L135.5 277.52C124.97 273.82 118.4 263.34 119.65 252.25C120.91 241.16 129.66 232.41 140.75 231.15C151.84 229.89 162.32 236.47 166.03 247L231.5 247L231.5 146.31L213.16 164.66L201.84 153.34L239.5 115.69L277.16 153.34L265.84 164.66L247.5 146.31L247.5 247L312.97 247C316.68 236.47 327.16 229.9 338.25 231.15C349.34 232.41 358.09 241.16 359.35 252.25C360.6 263.34 354.03 273.82 343.5 277.53L343.5 295L359.5 295C372.75 295.02 383.48 305.75 383.5 319L383.5 455C383.48 468.25 372.75 478.98 359.5 479ZM207.5 407L79.5 407L79.5 423C79.5 427.42 83.08 431 87.5 431L199.5 431C203.92 431 207.5 427.42 207.5 423L207.5 407ZM87.5 319C83.08 319 79.5 322.58 79.5 327L79.5 391L207.5 391L207.5 327C207.5 322.58 203.92 319 199.5 319L87.5 319ZM151.5 255C151.5 250.58 147.92 247 143.5 247C139.08 247 135.5 250.58 135.5 255C135.5 259.42 139.08 263 143.5 263C147.92 263 151.5 259.42 151.5 255ZM327.5 255C327.5 259.42 331.08 263 335.5 263C339.92 263 343.5 259.42 343.5 255C343.5 250.58 339.92 247 335.5 247C331.08 247 327.5 250.58 327.5 255ZM271.5 423L367.5 423L367.5 319C367.5 314.58 363.92 311 359.5 311L279.5 311C275.08 311 271.5 314.58 271.5 319L271.5 423ZM279.5 463L359.5 463C363.92 463 367.5 459.42 367.5 455L367.5 439L271.5 439L271.5 455C271.5 459.42 275.08 463 279.5 463Z" />
</svg>